<svg width="44" height="91" viewBox="0 0 44 91" fill="none" xmlns="http://www.w3.org/2000/svg">
<path d="M7.5629 4.25132C8.5262 10.367 13.8986 14.7336 17.6204 19.3128C21.9859 24.6572 26.2627 30.2068 29.8751 36.0541C38.0936 49.3956 25.7372 60.183 14.3646 67.7905C15.2973 61.9092 15.4612 55.8906 14.2684 49.968C13.1399 44.122 3.85152 45.6635 5.1209 51.5217C7.60744 63.0207 4.63901 74.4044 0.31016 85.103C-1.04412 88.464 2.79906 91.6341 5.96805 90.2749C17.569 84.9582 29.8454 81.687 42.5518 80.0143C44.2025 79.8017 44.0628 77.3056 42.4364 77.2364C33.4067 76.6001 24.7912 76.9221 16.3361 78.6773C29.6497 69.9596 45.7229 57.2214 43.2752 40.3318C42.1236 32.2836 35.9069 25.3602 31.1151 19.1984C26.0013 12.654 19.6413 2.45348 10.9906 0.71423C8.90138 0.250265 7.36246 2.45972 7.5629 4.25132Z" fill="#F49000"/>
</svg>
