<svg width="2243" height="2032" viewBox="0 0 2243 2032" fill="none" xmlns="http://www.w3.org/2000/svg">
<path d="M757.075 0C963.636 0 1012.77 274.456 1420.27 274.456C1677.41 274.456 1691.82 168.154 1810.34 168.154C1858.79 168.154 1886.33 260.881 1886.33 322.703C1886.33 567.053 1823.6 840.224 1864.34 840.224C1917.74 840.224 2134.59 700.202 2190.79 700.202C2244.19 700.202 2242.79 741.656 2242.79 764.837C2242.79 788.019 2259.19 1192.91 1711.18 1511.89C1687.29 1525.94 1571.13 2031.75 1161.76 2031.75C888.229 2031.75 680.271 1883.78 600.633 1529.67C584.71 1456.62 0.164001 1226.17 0.164001 718.433C0.164001 606.958 28.266 546.068 71.359 546.068C179.099 546.068 409.54 726.866 508.837 726.866C594.782 726.866 580.964 539.508 580.964 483.305C580.964 427.122 576.277 0 757.075 0Z" fill="#001007"/>
</svg>
