<svg xmlns="http://www.w3.org/2000/svg" width="2243" height="2500" fill="none"><path fill="#78C800" d="M757.075 0c206.561 0 255.695 274.456 663.195 274.456 257.14 0 271.55-106.302 390.07-106.302 48.45 0 75.99 92.727 75.99 154.549 0 244.35-62.73 517.521-21.99 517.521 53.4 0 270.25-140.022 326.45-140.022 53.4 0 52 41.454 52 64.635 0 23.182 16.4 428.073-531.61 747.053-23.89 14.05-140.05 519.86-549.42 519.86-273.531 0-481.489-147.97-561.127-502.08C584.71 1456.62.164 1226.17.164 718.433c0-111.475 28.102-172.365 71.195-172.365 107.74 0 338.181 180.798 437.478 180.798 85.945 0 72.127-187.358 72.127-243.561C580.964 427.122 576.277 0 757.075 0Z"/><path fill="#8EE000" d="M1707.63 360.35c-37.23 0-46.23 19.214-59.45 7.208-6.01-6.003 25.83-19.821 25.83-25.824 0-3.006-4.82-2.399-11.41-2.399-39.03 0-115.91 57.054-126.73 57.054-4.81 0-12.61 1.204-12.61-6.003 0-16.218 54.65-30.025 16.81-30.025s-93.69 48.651-151.94 48.651c-120.12 0-216.81-94.286-216.81-70.872 0 8.413 13.82 21.623 22.82 38.438 0 0 5.4 25.226-4.81 15.62-110.22-110.21-220.41-136.935-220.41-136.935s-8.412 0-8.412 3.604c0 12.613 24.022 29.428 24.022 34.236 0 4.808-3.007 7.805-7.805 7.805-23.425 0-40.249-45.048-134.525-45.048-142.351 0-181.557 224.013-181.557 407.797 0 260.649 167.729 343.463 306.465 343.463 110.032 0 227.832-64.856 277.132-160.104l146.42 11.156s71.78 136.044 200.9 136.044c121.18 0 226.56-76.672 226.56-342.585.02-279.264-73.24-291.281-110.49-291.281Z"/><path fill="#fff" d="M952.136 902.369c103.474 0 187.354-101.989 187.354-227.799s-83.88-227.799-187.354-227.799c-103.474 0-187.357 101.989-187.357 227.799s83.883 227.799 187.357 227.799ZM1749.6 717.573c-5.93 110.665-80.76 198.027-167.12 195.122-86.37-2.906-151.59-94.975-145.66-205.65 5.93-110.665 80.76-198.027 167.13-195.122 86.37 2.905 151.58 94.974 145.65 205.65Z"/><path fill="#3F3F3F" d="M948.279 799.711c56.841 0 102.921-56.027 102.921-125.141 0-69.113-46.08-125.141-102.921-125.141-56.841 0-102.921 56.028-102.921 125.141 0 69.114 46.08 125.141 102.921 125.141Z"/><path fill="#fff" d="M881.568 647.268c26.624 0 48.206-23.318 48.206-52.083 0-28.765-21.582-52.083-48.206-52.083-26.623 0-48.206 23.318-48.206 52.083 0 28.765 21.583 52.083 48.206 52.083Z"/><path fill="#3F3F3F" d="M1679.03 717.543c-4.72 65.06-48.19 115.898-97.12 113.56-48.92-2.339-84.78-56.983-80.07-122.044 4.71-65.061 48.18-115.898 97.11-113.56 48.92 2.338 84.78 56.983 80.08 122.044Z"/><path fill="#71B200" d="M1191.6 937.152s-30.1 251.858 52.31 250.118c82.41-1.74 78.9-122.43 78.39-123.86-.51-1.45-130.7-126.258-130.7-126.258Z"/><path fill="#fff" d="M1576.86 641.782c.84 26.522-17.64 48.621-41.31 49.349-23.66.729-43.51-20.185-44.35-46.717-.84-26.533 17.65-48.622 41.31-49.35 23.65-.719 43.51 20.195 44.35 46.718Z"/><path fill="#71B200" d="M2149.26 1091.66c-108.25 157.94-334.84 282.55-372.03 282.55-42.15 0-13.12-44.96-43.1-44.96-27.17 0-32.78 473.02-517.09 473.02-544.27 0-532.092-562.95-584.549-562.95-38.407 0-13.12 82.43-54.321 82.43-137.673 0-504.31-278.25-565.25-475.948C98.397 1265.42 586.126 1463.05 600.653 1529.7c79.628 354.11 287.585 502.07 561.126 502.07 409.37 0 525.53-505.81 549.42-519.86 226.18-131.67 359.48-284.5 438.06-420.25Z"/><path fill="#F49000" d="M1191.61 911.409s-17.72 184.171 71.94 184.171c89.65 0 134.23-73.56 134.23-139.599 0-66.043-206.17-44.572-206.17-44.572Z"/><path fill="#FFC200" d="M1326.39 802.414c65.22 0 114.36 75.71 114.36 150.611 0 74.905-61.22 151.415-81.35 151.415-20.14 0-168.33-137.729-168.33-196.523 0-58.795 56.38-105.503 135.32-105.503Z"/><path fill="#FFF3B8" d="M1367.44 848.64c.72-13.03-18.06-24.662-41.96-25.983-23.89-1.321-43.84 8.171-44.56 21.2-.72 13.029 18.06 24.662 41.96 25.982 23.89 1.321 43.84-8.17 44.56-21.199Z"/><path fill="#D98500" d="M1080.92 2100.18c70.04-3.67 120.3 11.24 123.59 74.11 3.28 62.89-82.03 79.34-127.39 81.7-45.37 2.37-96.73-18.07-99.099-63.45-2.379-45.34 39.629-89.04 102.899-92.36Zm430.31-128.57c66.86-3.51 68.26 69.04 68.55 74.61.29 5.57 7.14 75.43-109.85 81.59-74.02 3.87-71.77-29.36-72.62-45.68-.85-16.32 29.15-106.07 113.92-110.52Z"/></svg>